<?xml version="1.0" standalone="no"?>
<!DOCTYPE svg PUBLIC "-//W3C//DTD SVG 20010904//EN"
 "http://www.w3.org/TR/2001/REC-SVG-20010904/DTD/svg10.dtd">
<svg version="1.0" xmlns="http://www.w3.org/2000/svg"
 width="162.000000pt" height="162.000000pt" viewBox="0 0 162.000000 162.000000"
 preserveAspectRatio="xMidYMid meet">
<metadata>
Created by potrace 1.11, written by Peter Selinger 2001-2013
</metadata>
<g transform="translate(0.000000,162.000000) scale(0.100000,-0.100000)"
fill="#000000" stroke="none">
<path d="M352 1468 c-7 -7 -12 -19 -12 -28 0 -8 56 -71 125 -140 118 -118 142
-150 112 -150 -8 0 -82 70 -166 155 -84 85 -158 155 -165 155 -17 0 -36 -21
-36 -41 0 -10 73 -90 162 -178 131 -129 160 -163 150 -173 -10 -10 -40 15
-152 127 -119 119 -143 138 -158 129 -9 -6 -18 -22 -20 -35 -2 -19 25 -52 138
-163 77 -77 140 -146 140 -153 0 -16 -4 -14 -70 33 -95 67 -171 92 -183 60 -7
-17 20 -42 94 -89 32 -20 71 -55 88 -81 l31 -45 51 26 c76 40 167 42 252 8 15
-6 16 -4 7 20 -5 14 -10 55 -10 90 0 53 6 74 35 130 19 37 32 72 28 79 -4 6
-23 32 -44 58 -20 26 -47 67 -59 92 -23 49 -34 56 -44 30 -18 -46 -6 -91 44
-163 28 -40 50 -77 50 -82 0 -20 -20 -7 -47 31 -41 58 -297 310 -314 310 -8 0
-20 -5 -27 -12z"/>
<path d="M1126 1290 c-77 -77 -146 -140 -153 -140 -16 0 -14 4 33 70 67 95 92
171 60 183 -17 7 -42 -20 -89 -94 -20 -32 -55 -71 -81 -88 l-45 -31 26 -51
c40 -76 42 -167 8 -252 -6 -15 -4 -16 20 -7 49 19 146 12 201 -14 28 -13 55
-29 58 -35 12 -19 31 -12 89 33 32 24 77 54 102 66 48 23 55 34 29 44 -46 18
-91 6 -163 -44 -40 -27 -77 -50 -82 -50 -22 0 -5 22 44 59 69 51 297 284 297
302 0 20 -20 39 -40 39 -8 0 -71 -56 -140 -125 -118 -118 -150 -142 -150 -112
0 7 70 82 155 167 85 84 155 159 155 165 0 17 -22 35 -42 35 -11 0 -83 -66
-170 -155 -89 -91 -158 -155 -169 -155 -11 0 -19 3 -19 7 0 4 62 70 137 145
118 118 136 141 127 156 -6 9 -22 18 -35 20 -19 2 -52 -25 -163 -138z"/>
<path d="M785 1108 c-38 -69 -40 -161 -7 -225 25 -48 32 -51 55 -25 50 55 63
179 26 257 -12 25 -27 45 -34 45 -6 0 -25 -24 -40 -52z"/>
<path d="M503 859 c-24 -12 -43 -27 -43 -33 0 -18 87 -63 137 -71 45 -7 132
13 168 38 17 13 18 17 5 33 -46 54 -188 72 -267 33z"/>
<path d="M935 861 c-39 -10 -95 -39 -95 -50 0 -4 8 -15 18 -24 55 -50 183 -63
259 -26 24 11 43 26 43 33 0 21 -91 64 -145 70 -28 3 -63 1 -80 -3z"/>
<path d="M367 756 c-32 -24 -77 -54 -102 -66 -48 -23 -55 -34 -29 -44 46 -18
91 -6 162 44 39 28 76 50 82 50 22 0 8 -20 -37 -53 -65 -48 -303 -290 -303
-308 0 -20 20 -39 40 -39 8 0 71 56 140 125 69 69 130 125 137 125 32 0 3 -37
-142 -179 -85 -84 -155 -158 -155 -165 0 -18 21 -36 42 -36 11 0 83 66 170
155 89 91 158 155 169 155 11 0 19 -3 19 -7 0 -4 -62 -70 -137 -145 -118 -118
-136 -141 -127 -156 6 -9 22 -18 35 -20 19 -2 52 25 163 138 77 77 146 140
153 140 16 0 14 -4 -33 -70 -67 -95 -92 -171 -60 -183 17 -7 42 20 89 94 20
32 55 71 81 88 l45 31 -26 51 c-40 76 -42 167 -8 252 6 15 4 16 -20 7 -49 -19
-146 -12 -201 14 -28 13 -55 29 -58 35 -12 19 -31 12 -89 -33z"/>
<path d="M787 762 c-50 -55 -63 -179 -26 -257 12 -25 27 -45 34 -45 6 0 25 24
40 53 38 68 40 160 7 225 -25 47 -32 50 -55 24z"/>
<path d="M1136 742 c-72 -39 -164 -41 -249 -7 -15 6 -16 4 -7 -20 19 -49 12
-146 -14 -201 -13 -28 -29 -55 -35 -58 -19 -12 -12 -31 33 -89 24 -32 54 -77
66 -102 23 -48 34 -55 44 -29 18 48 2 99 -60 187 -19 26 -34 52 -34 57 0 23
22 7 59 -42 51 -70 284 -298 302 -298 20 0 39 20 39 40 0 8 -56 71 -125 140
-118 118 -142 150 -112 150 8 0 82 -70 166 -155 84 -85 158 -155 165 -155 18
0 36 21 36 42 0 11 -66 83 -155 170 -91 89 -155 158 -155 169 0 11 3 19 7 19
4 0 70 -62 145 -137 118 -118 141 -136 156 -127 9 6 18 22 20 35 2 19 -25 52
-138 163 -77 77 -140 146 -140 153 0 16 4 14 70 -33 95 -67 171 -92 183 -60 7
17 -20 42 -94 89 -32 20 -71 55 -88 81 -18 25 -33 46 -34 45 -1 0 -24 -12 -51
-27z"/>
</g>
</svg>
